<?xml version="1.0" encoding="UTF-8" standalone="no"?>
<!-- Generator: Adobe Illustrator 16.0.0, SVG Export Plug-In . SVG Version: 6.00 Build 0)  -->

<svg
   xmlns:dc="http://purl.org/dc/elements/1.1/"
   xmlns:cc="http://creativecommons.org/ns#"
   xmlns:rdf="http://www.w3.org/1999/02/22-rdf-syntax-ns#"
   xmlns:svg="http://www.w3.org/2000/svg"
   xmlns="http://www.w3.org/2000/svg"
   xmlns:sodipodi="http://sodipodi.sourceforge.net/DTD/sodipodi-0.dtd"
   xmlns:inkscape="http://www.inkscape.org/namespaces/inkscape"
   version="1.1"
   id="Layer_1"
   x="0px"
   y="0px"
   width="143.832"
   height="50"
   viewBox="0 0 143.832 49.999999"
   enable-background="new 0 0 512 512"
   xml:space="preserve"
   inkscape:version="0.91 r13725"
   sodipodi:docname="Tarjeta.svg"><metadata
     id="metadata17"><rdf:RDF><cc:Work
         rdf:about=""><dc:format>image/svg+xml</dc:format><dc:type
           rdf:resource="http://purl.org/dc/dcmitype/StillImage" /><dc:title></dc:title></cc:Work></rdf:RDF></metadata><defs
     id="defs15" /><sodipodi:namedview
     pagecolor="#ffffff"
     bordercolor="#666666"
     borderopacity="1"
     objecttolerance="10"
     gridtolerance="10"
     guidetolerance="10"
     inkscape:pageopacity="0"
     inkscape:pageshadow="2"
     inkscape:window-width="959"
     inkscape:window-height="744"
     id="namedview13"
     showgrid="false"
     inkscape:zoom="1.3037281"
     inkscape:cx="140.63256"
     inkscape:cy="161.04233"
     inkscape:window-x="65"
     inkscape:window-y="24"
     inkscape:window-maximized="1"
     inkscape:current-layer="g3" /><g
     id="g3"
     transform="translate(0,-461.99998)"><path
       d="m 103.79409,463.87983 -63.750479,0 c -2.517004,0 -4.553606,2.03674 -4.553606,4.5536 l 0,36.42885 c 0,2.51701 2.036745,4.55361 4.553606,4.55361 l 63.750479,0 c 2.51701,0 4.55361,-2.03675 4.55361,-4.55361 l 0,-36.42885 c 0,-2.51686 -2.0366,-4.5536 -4.55361,-4.5536 z m 0,40.98245 -63.750479,0 0,-22.76803 63.750479,0 0,22.76803 z m 0,-31.87524 -63.750479,0 0,-4.55361 63.750479,0 0,4.55361 z"
       id="path5"
       style="fill:#cccccc;fill-opacity:1;stroke:#cccccc;stroke-width:0.14230017;stroke-opacity:1"
       inkscape:connector-curvature="0" /><rect
       x="44.597218"
       y="495.75507"
       width="9.1072111"
       height="4.5536056"
       id="rect7"
       style="fill:#cccccc;fill-opacity:1" /><rect
       x="58.258038"
       y="495.75507"
       width="9.1072111"
       height="4.5536056"
       id="rect9"
       style="fill:#cccccc;fill-opacity:1" /><path
       d="m 83.30287,500.30868 c 1.756555,0 3.344056,-0.68489 4.553608,-1.77435 1.209553,1.08946 2.797054,1.77435 4.553605,1.77435 3.770961,0 6.830411,-3.05946 6.830411,-6.83041 0,-3.77096 -3.05945,-6.83041 -6.830411,-6.83041 -1.756551,0 -3.344052,0.68489 -4.553605,1.77434 -1.209552,-1.08945 -2.797053,-1.77434 -4.553608,-1.77434 -3.770954,0 -6.830408,3.05945 -6.830408,6.83041 0,3.77095 3.059454,6.83041 6.830408,6.83041 z"
       id="path11"
       style="fill:#cccccc;fill-opacity:1"
       inkscape:connector-curvature="0" /></g></svg>