<?xml version="1.0" encoding="UTF-8" standalone="no"?>
<svg
   xmlns:dc="http://purl.org/dc/elements/1.1/"
   xmlns:cc="http://creativecommons.org/ns#"
   xmlns:rdf="http://www.w3.org/1999/02/22-rdf-syntax-ns#"
   xmlns:svg="http://www.w3.org/2000/svg"
   xmlns="http://www.w3.org/2000/svg"
   xmlns:sodipodi="http://sodipodi.sourceforge.net/DTD/sodipodi-0.dtd"
   xmlns:inkscape="http://www.inkscape.org/namespaces/inkscape"
   width="150"
   height="80"
   id="svg2"
   version="1.1"
   inkscape:version="0.91 r13725"
   sodipodi:docname="Check.svg">
  <defs
     id="defs16" />
  <sodipodi:namedview
     pagecolor="#ffffff"
     bordercolor="#666666"
     borderopacity="1"
     objecttolerance="10"
     gridtolerance="10"
     guidetolerance="10"
     inkscape:pageopacity="0"
     inkscape:pageshadow="2"
     inkscape:window-width="959"
     inkscape:window-height="744"
     id="namedview14"
     showgrid="false"
     inkscape:zoom="1.2421053"
     inkscape:cx="84.490901"
     inkscape:cy="95.000003"
     inkscape:window-x="65"
     inkscape:window-y="24"
     inkscape:window-maximized="1"
     inkscape:current-layer="g2414" />
  <metadata
     id="metadata7">image/svg+xml<rdf:RDF>
  <cc:Work
     rdf:about="">
    <dc:format>image/svg+xml</dc:format>
    <dc:type
       rdf:resource="http://purl.org/dc/dcmitype/StillImage" />
    <dc:title></dc:title>
  </cc:Work>
</rdf:RDF>
</metadata>
  <g
     id="g5"
     transform="translate(0,-110)">
    <title
       id="title7">Layer 1</title>
    <g
       display="inline"
       id="layer1"
       style="display:inline">
      <g
         display="inline"
         id="g2414"
         style="display:inline">
        <text
           font-size="40px"
           font-style="normal"
           font-weight="normal"
           xml:space="preserve"
           x="-33.317333"
           y="97.307899"
           id="text3228"
           style="font-style:normal;font-weight:normal;font-size:40px;font-family:'Kochi Gothic';fill:#003f7f;stroke-width:1px" />
        <path
           stroke-miterlimit="4"
           d="m 74.018421,117.48104 c -19.65294,0 -35.654008,16.00108 -35.654014,35.65401 0,19.65294 16.001074,35.654 35.654014,35.654 19.652916,0 35.654009,-16.00106 35.654009,-35.654 0,-8.49638 -2.87507,-16.09454 -7.75732,-22.31895 l -3.357063,3.97887 c 4.256273,5.24064 5.922213,11.05898 5.922213,18.34008 0,16.8419 -13.619943,30.45379 -30.461839,30.45379 -16.84191,-1e-5 -30.461838,-13.61189 -30.461838,-30.45379 0,-16.8419 13.619928,-30.46184 30.461838,-30.46184 5.336796,0 9.328436,0.76717 13.686146,3.17384 l 3.18947,-4.18843 c -5.1022,-2.81783 -10.64806,-4.17758 -16.875616,-4.17758 z"
           id="path2418"
           style="fill:#cccccc;fill-opacity:1;fill-rule:evenodd;stroke-width:20.20000076;stroke-linejoin:round;stroke-miterlimit:4;stroke-dashoffset:0"
           inkscape:connector-curvature="0" />
        <path
           d="m 60.822371,148.44586 c 1.43771,5e-5 2.52523,1.17972 3.26256,3.53905 1.47457,4.42384 2.52522,6.63574 3.15196,6.63571 0.47921,3e-5 0.9769,-0.36861 1.49305,-1.10595 10.35903,-16.58924 19.943946,-30.00812 28.754756,-40.25667 2.28555,-2.65421 5.916763,-3.98135 10.893623,-3.98143 1.17963,8e-5 1.97222,0.11067 2.37781,0.33179 0.40544,0.22126 0.60818,0.49775 0.60828,0.82947 -1e-4,0.51618 -0.60836,1.52997 -1.82483,3.04137 -14.229983,17.10544 -27.427683,35.16932 -39.593099,54.19166 -0.84793,1.32716 -2.58059,1.99073 -5.19798,1.99072 -2.6543,1e-5 -4.22107,-0.11059 -4.7003,-0.3318 -1.25343,-0.55295 -2.72803,-3.37313 -4.4238,-8.46052 -1.917,-5.64034 -2.8755,-9.17938 -2.87548,-10.61715 -2e-5,-1.5483 1.29026,-3.04133 3.87083,-4.4791 1.58518,-0.88473 2.98606,-1.3271 4.20262,-1.32715"
           id="path2510"
           style="fill:#cccccc;fill-opacity:1;stroke-width:1px"
           inkscape:connector-curvature="0" />
      </g>
    </g>
  </g>
</svg>
